<svg xmlns="http://www.w3.org/2000/svg" viewBox="16 353 902 301" role="img" aria-label="Clube do Ukulele"><title>Clube do Ukulele</title><desc>Logo horizontal em uma cor (índigo profundo).</desc><g transform="translate(-613.75,-484.6) scale(1.25)"><g transform="translate(0.000000,1200.000000) scale(0.100000,-0.100000)" fill="#2D124E"><path d="M5945 5190 c-12 -13 -29 -20 -44 -18 -25 3 -26 0 -29 -49 -3 -57 -24
-71 -52 -37 -8 8 -25 14 -39 12 -24 -3 -26 -7 -26 -52 0 -64 22 -81 59 -47 41
38 61 25 64 -42 l3 -57 -29 0 c-18 0 -32 6 -36 16 -4 10 -15 14 -33 12 -27 -3
-28 -5 -28 -58 0 -52 2 -55 26 -58 14 -2 31 4 39 12 7 9 23 16 35 16 19 0 24
-7 30 -39 4 -22 13 -45 21 -51 22 -19 24 -61 16 -370 l-7 -295 -54 -26 c-65
-31 -111 -81 -136 -147 -18 -44 -18 -51 -2 -128 25 -119 23 -132 -28 -210 -64
-98 -85 -159 -85 -253 0 -201 166 -340 409 -341 169 0 323 78 383 195 50 95
30 264 -42 373 -54 81 -64 125 -45 204 8 34 15 80 15 101 0 75 -74 178 -151
210 l-36 15 -6 83 c-4 46 -10 191 -13 321 -6 207 -5 240 9 261 8 13 19 40 22
61 6 31 11 36 35 36 16 0 30 -7 34 -15 7 -18 62 -20 69 -2 2 6 1 32 -2 57 -7
49 -35 66 -61 35 -7 -8 -25 -15 -41 -15 -27 0 -29 3 -29 38 0 61 10 82 36 82
13 0 28 -9 34 -20 26 -49 73 -13 68 52 -3 39 -6 43 -32 46 -16 2 -32 -1 -35
-6 -3 -6 -17 -12 -31 -13 -23 -4 -25 -1 -25 39 0 42 -2 44 -39 57 -21 8 -43
18 -49 24 -20 20 -122 13 -142 -9z"/></g><g transform="translate(0.000000,1200.000000) scale(0.100000,-0.100000)" fill="#2D124E"><path d="M5251 4636 c-7 -8 -11 -27 -9 -43 2 -23 11 -30 53 -46 28 -10 103
-41 167 -69 110 -47 155 -55 146 -26 -3 7 -45 36 -94 64 -49 28 -118 69 -153
92 -68 45 -91 51 -110 28z M6702 4625 c-23 -13 -62 -37 -85 -54 -23 -16 -75
-48 -114 -70 -40 -23 -73 -46 -73 -52 0 -25 38 -16 166 39 77 33 149 63 160
66 39 12 59 43 46 71 -15 32 -44 32 -100 0z M5081 4237 c-19 -50 14 -80 81
-72 18 2 113 10 211 16 167 12 220 24 188 44 -17 10 -166 25 -323 32 l-147 6
-10 -26z M6740 4254 c-8 -2 -73 -8 -144 -14 -138 -11 -153 -15 -137 -34 16
-19 438 -47 471 -32 23 10 27 55 8 74 -11 11 -158 16 -198 6z M5455 3949 c-60
-28 -128 -58 -150 -67 -56 -22 -65 -31 -65 -61 0 -59 46 -67 111 -19 24 17 90
63 147 100 95 64 125 99 85 98 -10 -1 -67 -24 -128 -51z M6436 3991 c-7 -11
-10 -9 161 -125 150 -101 181 -112 202 -72 19 35 0 61 -61 84 -29 11 -102 43
-161 71 -109 52 -131 58 -141 42z"/></g></g><g transform="translate(0.000000,1200.000000) scale(0.100000,-0.100000)" fill="#2D124E"><path d="M5800 8273 c0 -87 3 -222 7 -300 l6 -143 106 0 c161 0 201 35 201
177 0 69 -12 101 -50 130 -10 9 -12 15 -4 20 39 28 52 160 21 219 -22 43 -60
54 -183 54 l-104 0 0 -157z m200 52 c15 -18 7 -100 -11 -121 -6 -8 -24 -14
-39 -14 -30 0 -40 28 -40 113 0 36 1 37 39 37 22 0 44 -6 51 -15z m-2 -243
c15 -19 16 -116 2 -143 -8 -13 -21 -19 -45 -19 l-35 0 0 88 c0 49 2 91 5 94
10 10 60 -4 73 -20z M6225 8233 c-4 -109 -11 -243 -14 -298 -4 -55 -7 -101 -7
-102 3 -5 250 -21 258 -17 4 3 8 25 8 50 l0 44 -44 0 c-24 0 -58 3 -75 6 l-31
7 0 83 0 84 65 0 65 0 0 40 0 39 -57 3 -58 3 -3 35 c-2 19 -1 54 3 78 l7 44
73 -4 73 -3 4 43 c2 24 1 45 -2 47 -3 1 -62 6 -131 9 l-127 7 -7 -198z M5575
8338 c24 -347 24 -402 5 -422 -20 -21 -64 -16 -73 8 -3 8 -13 106 -22 218 -23
288 -18 268 -68 268 -66 0 -65 1 -51 -155 8 -77 18 -188 23 -246 11 -131 26
-164 88 -191 79 -35 172 -7 208 62 21 40 15 307 -11 498 l-5 42 -50 0 -49 0 5
-82z M6770 8298 c-6 -57 -22 -179 -35 -273 -13 -93 -25 -183 -27 -200 l-3 -30
95 -13 c83 -11 100 -10 137 3 70 27 79 48 113 283 39 259 26 284 -155 311 -44
7 -87 14 -96 17 -14 4 -19 -11 -29 -98z m181 -34 c12 -15 11 -39 -11 -219 -15
-130 -26 -164 -55 -171 -45 -11 -60 -2 -57 36 5 74 44 336 52 356 10 24 50 23
71 -2z M5028 8363 c-16 -2 -28 -8 -28 -13 0 -12 56 -415 72 -513 l12 -79 80 7
c45 4 101 10 126 14 l45 7 -1 42 c0 23 -3 45 -6 48 -3 3 -35 1 -72 -4 -36 -5
-69 -6 -74 -3 -5 3 -14 49 -21 101 -7 52 -19 136 -26 185 -7 50 -16 118 -20
153 -8 68 -6 67 -87 55z M4705 8299 c-43 -12 -82 -53 -96 -100 -11 -36 -8 -58
35 -237 55 -230 67 -251 154 -260 103 -9 182 55 182 148 0 67 -7 73 -69 59
-44 -9 -51 -14 -46 -30 3 -10 7 -28 10 -38 11 -38 -58 -70 -82 -38 -14 18 -87
327 -85 361 4 67 63 79 89 19 8 -21 16 -39 18 -41 1 -2 24 2 50 9 l47 12 -7
36 c-16 92 -94 131 -200 100z M7255 8300 c-48 -19 -65 -54 -95 -193 -16 -75
-33 -153 -39 -174 -20 -71 -14 -138 15 -172 35 -42 117 -66 172 -52 67 19 81
43 133 243 52 199 57 234 34 278 -32 62 -150 100 -220 70z m113 -102 c17 -17
15 -37 -19 -182 -48 -204 -49 -207 -65 -213 -32 -12 -64 6 -64 37 0 35 56 316
70 348 11 25 57 31 78 10z"/></g><g transform="translate(0.000000,1200.000000) scale(0.100000,-0.100000)" fill="#2D124E"><path d="M6040 7502 c-16 -6 -13 -1682 3 -1687 6 -2 164 -6 350 -8 l337 -4 0
129 c0 94 -3 130 -12 133 -7 3 -94 8 -193 12 l-180 8 -3 707 -2 707 -145 3
c-80 2 -150 2 -155 0z M5563 7493 l-53 -4 0 -662 c0 -509 -3 -668 -13 -687
-33 -66 -132 -91 -184 -46 l-28 24 -3 678 c-1 387 -6 680 -11 684 -10 6 -293
-8 -300 -15 -2 -3 -3 -318 -2 -700 2 -740 2 -740 51 -835 55 -108 220 -164
418 -143 171 19 288 94 348 226 l29 62 0 710 0 710 -100 1 c-55 0 -124 -1
-152 -3z M6860 6638 l0 -845 188 -12 c103 -7 232 -16 287 -21 55 -5 125 -10
155 -12 l55 -2 0 134 0 135 -60 7 c-33 4 -120 12 -192 19 l-133 11 0 226 0
225 118 -7 c64 -4 134 -9 155 -13 l38 -6 -3 139 -3 139 -142 12 c-78 6 -147
14 -153 18 -6 4 -10 80 -10 207 l0 201 93 -7 c50 -3 136 -9 190 -13 l97 -6 0
126 c0 81 -4 128 -11 133 -14 8 -365 41 -540 50 l-129 7 0 -845z M4680 7444
c-74 -8 -138 -18 -141 -22 -4 -4 -58 -142 -119 -307 -61 -165 -114 -307 -118
-315 -4 -8 -8 123 -10 293 l-2 307 -33 -1 c-17 0 -84 -6 -147 -12 l-115 -12
-3 -852 c-2 -828 -2 -853 17 -853 10 0 56 6 102 14 46 8 105 17 132 21 l47 6
0 232 0 232 33 80 c19 43 38 80 44 82 6 2 21 -37 33 -89 13 -51 40 -145 60
-208 20 -63 47 -153 60 -200 13 -47 26 -88 29 -92 3 -4 71 0 151 7 80 8 151
15 159 15 17 0 16 5 -53 230 -148 483 -216 712 -216 734 0 13 30 95 66 182 84
204 200 492 208 522 9 26 13 26 -184 6z M7697 7403 c-10 -9 -9 -1671 1 -1676
4 -3 59 -10 122 -16 63 -7 198 -23 300 -38 102 -14 196 -27 210 -27 l25 -1 3
129 c1 71 -1 133 -5 137 -4 4 -71 17 -148 29 -77 11 -155 23 -172 26 l-33 5 0
699 c0 384 -4 701 -8 704 -8 5 -245 36 -274 36 -8 0 -18 -3 -21 -7z M3759
7336 c-2 -2 -58 -11 -124 -20 -66 -10 -128 -20 -137 -22 -17 -5 -18 -45 -18
-658 0 -360 -3 -668 -6 -686 -9 -40 -62 -95 -100 -103 -16 -3 -43 1 -61 8 -65
27 -63 5 -63 735 0 363 -3 660 -7 660 -15 0 -258 -41 -276 -46 -17 -5 -17 -43
-15 -722 l3 -717 23 -46 c53 -107 131 -155 267 -166 207 -15 415 99 498 274
l32 68 3 714 c2 631 -1 744 -19 727z M8482 6463 l3 -846 25 -8 c14 -4 75 -14
135 -24 61 -9 194 -32 297 -51 102 -19 189 -34 192 -34 13 0 6 257 -7 268 -7
6 -88 26 -180 44 l-167 32 0 233 0 233 33 -7 c17 -3 82 -16 142 -28 61 -13
113 -21 118 -18 8 5 10 197 1 240 -6 29 -7 30 -132 52 -70 13 -135 25 -144 28
-16 4 -18 19 -20 111 -3 110 2 305 7 310 2 2 78 -13 169 -33 92 -19 171 -33
177 -30 10 7 12 133 3 213 -6 43 -11 53 -28 57 -54 11 -606 105 -615 105 -8 0
-10 -244 -9 -847z"/></g></svg>
