<svg xmlns="http://www.w3.org/2000/svg" viewBox="0 0 372 112" width="372" height="112" role="img" aria-label="Destrava Ukulele">
  <defs>
    <style>
      @import url('https://fonts.googleapis.com/css2?family=Anton&amp;family=Montserrat:wght@800&amp;display=swap');
      .d{font-family:'Anton',Impact,sans-serif;fill:#F5F4F7}
      .u{font-family:'Montserrat','Arial Black',sans-serif;font-weight:800;fill:#F5B93B;letter-spacing:.4em}
    </style>
  </defs>
  <g transform="translate(6,12)">
    <path d="M27 34 L27 21 A9.5 9.5 0 0 1 46 17.5" fill="none" stroke="#F5F4F7" stroke-width="7" stroke-linecap="round"/>
    <path d="M34 31 C46 31 53 35 53 43 C53 50 46 52 46 58 C46 65 59 67 59 74 C59 83 47 88 34 88 C21 88 9 83 9 74 C9 67 22 65 22 58 C22 52 15 50 15 43 C15 35 22 31 34 31 Z" fill="#F5B93B"/>
    <circle cx="34" cy="64" r="8.5" fill="#2D2249"/>
    <line x1="28" y1="34" x2="28" y2="85" stroke="#2D2249" stroke-width="1.4"/>
    <line x1="32" y1="33" x2="32" y2="86" stroke="#2D2249" stroke-width="1.4"/>
    <line x1="36" y1="33" x2="36" y2="86" stroke="#2D2249" stroke-width="1.4"/>
    <line x1="40" y1="34" x2="40" y2="85" stroke="#2D2249" stroke-width="1.4"/>
    <rect x="26" y="77" width="16" height="3.4" rx="1.2" fill="#2D2249"/>
  </g>
  <text class="d" x="92" y="60" font-size="46">DESTRAVA</text>
  <text class="u" x="94" y="90" font-size="17">UKULELE</text>
</svg>
